<mxfile host="app.diagrams.net" modified="2023-12-19T02:02:24.523Z" agent="Mozilla/5.0 (Windows NT 10.0; Win64; x64) AppleWebKit/537.36 (KHTML, like Gecko) Chrome/120.0.0.0 Safari/537.36" version="22.1.11" etag="sh5ttfbgwG8BrVUqyCOK" type="github">
  <diagram name="페이지-1" id="9PC2HINHQp9WQlIU5TEu">
    <mxGraphModel>
      <root>
        <mxCell id="0" />
        <mxCell id="1" parent="0" />
      </root>
    </mxGraphModel>
  </diagram>
</mxfile>
